<svg width="20" height="23" viewBox="0 0 20 23" fill="none" xmlns="http://www.w3.org/2000/svg">
<path d="M17.8571 2.85714H15.7143V0.535714C15.7143 0.239866 15.4744 0 15.1786 0H13.3929C13.097 0 12.8571 0.239866 12.8571 0.535714V2.85714H7.14286V0.535714C7.14286 0.239866 6.90299 0 6.60714 0H4.82143C4.52558 0 4.28571 0.239866 4.28571 0.535714V2.85714H2.14286C0.959375 2.85714 0 3.81652 0 5V20.7143C0 21.8978 0.959375 22.8571 2.14286 22.8571H17.8571C19.0406 22.8571 20 21.8978 20 20.7143V5C20 3.81652 19.0406 2.85714 17.8571 2.85714ZM17.5893 20.7143H2.41071C2.33967 20.7143 2.27154 20.6861 2.22131 20.6358C2.17108 20.5856 2.14286 20.5175 2.14286 20.4464V7.14286H17.8571V20.4464C17.8571 20.5175 17.8289 20.5856 17.7787 20.6358C17.7285 20.6861 17.6603 20.7143 17.5893 20.7143V20.7143ZM15.23 11.7567L8.87687 18.0589C8.66683 18.2672 8.32763 18.2659 8.11924 18.0558L4.76696 14.6764C4.55862 14.4664 4.55996 14.1272 4.77 13.9188L5.78424 12.9127C5.99429 12.7044 6.33348 12.7057 6.54183 12.9158L8.51076 14.9007L13.4693 9.98188C13.6794 9.77353 14.0186 9.77487 14.227 9.98491L15.233 10.9991C15.4414 11.2092 15.44 11.5483 15.23 11.7567Z" fill="current"/>
</svg>
