<svg width="20" height="23" viewBox="0 0 20 23" fill="none" xmlns="http://www.w3.org/2000/svg">
<path d="M6.60714 12.8571H4.82143C4.52679 12.8571 4.28571 12.6161 4.28571 12.3214V10.5357C4.28571 10.2411 4.52679 10 4.82143 10H6.60714C6.90179 10 7.14286 10.2411 7.14286 10.5357V12.3214C7.14286 12.6161 6.90179 12.8571 6.60714 12.8571ZM11.4286 12.3214V10.5357C11.4286 10.2411 11.1875 10 10.8929 10H9.10714C8.8125 10 8.57143 10.2411 8.57143 10.5357V12.3214C8.57143 12.6161 8.8125 12.8571 9.10714 12.8571H10.8929C11.1875 12.8571 11.4286 12.6161 11.4286 12.3214ZM15.7143 12.3214V10.5357C15.7143 10.2411 15.4732 10 15.1786 10H13.3929C13.0982 10 12.8571 10.2411 12.8571 10.5357V12.3214C12.8571 12.6161 13.0982 12.8571 13.3929 12.8571H15.1786C15.4732 12.8571 15.7143 12.6161 15.7143 12.3214ZM11.4286 16.6071V14.8214C11.4286 14.5268 11.1875 14.2857 10.8929 14.2857H9.10714C8.8125 14.2857 8.57143 14.5268 8.57143 14.8214V16.6071C8.57143 16.9018 8.8125 17.1429 9.10714 17.1429H10.8929C11.1875 17.1429 11.4286 16.9018 11.4286 16.6071ZM7.14286 16.6071V14.8214C7.14286 14.5268 6.90179 14.2857 6.60714 14.2857H4.82143C4.52679 14.2857 4.28571 14.5268 4.28571 14.8214V16.6071C4.28571 16.9018 4.52679 17.1429 4.82143 17.1429H6.60714C6.90179 17.1429 7.14286 16.9018 7.14286 16.6071ZM15.7143 16.6071V14.8214C15.7143 14.5268 15.4732 14.2857 15.1786 14.2857H13.3929C13.0982 14.2857 12.8571 14.5268 12.8571 14.8214V16.6071C12.8571 16.9018 13.0982 17.1429 13.3929 17.1429H15.1786C15.4732 17.1429 15.7143 16.9018 15.7143 16.6071ZM20 5V20.7143C20 21.8973 19.0402 22.8571 17.8571 22.8571H2.14286C0.959821 22.8571 0 21.8973 0 20.7143V5C0 3.81696 0.959821 2.85714 2.14286 2.85714H4.28571V0.535714C4.28571 0.241071 4.52679 0 4.82143 0H6.60714C6.90179 0 7.14286 0.241071 7.14286 0.535714V2.85714H12.8571V0.535714C12.8571 0.241071 13.0982 0 13.3929 0H15.1786C15.4732 0 15.7143 0.241071 15.7143 0.535714V2.85714H17.8571C19.0402 2.85714 20 3.81696 20 5ZM17.8571 20.4464V7.14286H2.14286V20.4464C2.14286 20.5938 2.26339 20.7143 2.41071 20.7143H17.5893C17.7366 20.7143 17.8571 20.5938 17.8571 20.4464Z" fill="current" />
</svg>
