<svg width="15" height="14" viewBox="0 0 15 14" fill="none" xmlns="http://www.w3.org/2000/svg">
<g clip-path="url(#clip0_39_193)">
<path d="M7.0654 10.02V11.03" stroke="#555555" stroke-linecap="round" stroke-linejoin="round"/>
<path d="M7.0654 5.00995V5.94995" stroke="#555555" stroke-linecap="round" stroke-linejoin="round"/>
<path d="M7.06541 13.49C10.5981 13.49 13.1215 12.25 13.1215 9.48997C13.1215 6.48997 11.6075 4.48997 8.57943 2.98997L9.77046 1.46997C9.83097 1.37024 9.86379 1.25644 9.86559 1.14009C9.8674 1.02374 9.83812 0.908993 9.78074 0.807468C9.72335 0.705944 9.63989 0.621254 9.53883 0.561984C9.43776 0.502714 9.32267 0.47097 9.20522 0.469971H4.9256C4.80816 0.47097 4.69307 0.502714 4.592 0.561984C4.49093 0.621254 4.40747 0.705944 4.35009 0.807468C4.2927 0.908993 4.26343 1.02374 4.26523 1.14009C4.26704 1.25644 4.29986 1.37024 4.36037 1.46997L5.55139 2.99997C2.52336 4.50997 1.00934 6.50997 1.00934 9.50997C1.00934 12.25 3.5327 13.49 7.06541 13.49Z" stroke="#555555" stroke-linecap="round" stroke-linejoin="round"/>
<path d="M6.05606 9.55998C6.17922 9.70481 6.33423 9.81977 6.50919 9.89604C6.68415 9.97232 6.87443 10.0079 7.06541 9.99998C7.35732 10.0197 7.64557 9.92651 7.86957 9.74002C8.09357 9.55353 8.23586 9.28826 8.26653 8.99998C8.23586 8.7117 8.09357 8.44643 7.86957 8.25994C7.64557 8.07345 7.35732 7.98026 7.06541 7.99998C6.7735 8.01969 6.48525 7.92651 6.26125 7.74002C6.03725 7.55353 5.89496 7.28826 5.86429 6.99998C5.8925 6.71069 6.0341 6.44389 6.25869 6.25691C6.48327 6.06993 6.77292 5.97768 7.06541 5.99998C7.25303 5.9886 7.44087 6.01858 7.6154 6.08774C7.78992 6.15691 7.94681 6.26355 8.07476 6.39998" stroke="#555555" stroke-linecap="round" stroke-linejoin="round"/>
</g>
<defs>
<clipPath id="clip0_39_193">
<rect width="14.1308" height="14" fill="white"/>
</clipPath>
</defs>
</svg>
