<svg width="20" height="20" viewBox="0 0 20 20" fill="none" xmlns="http://www.w3.org/2000/svg">
<path fill-rule="evenodd" clip-rule="evenodd" d="M10.3995 14.8012C11.7159 14.1069 15.8333 11.6069 15.8333 7.50002C15.8333 4.27836 13.2217 1.66669 10 1.66669C6.77834 1.66669 4.16667 4.27836 4.16667 7.50002C4.16667 11.6069 8.28409 14.1069 9.60047 14.8012C9.85243 14.9341 10.1476 14.9341 10.3995 14.8012ZM10 10C11.3807 10 12.5 8.88073 12.5 7.50002C12.5 6.11931 11.3807 5.00002 10 5.00002C8.61929 5.00002 7.50001 6.11931 7.50001 7.50002C7.50001 8.88073 8.61929 10 10 10Z" fill="#777777"/>
<path d="M15.0518 13.75C15.5638 14.13 15.8333 14.5612 15.8333 15C15.8333 15.4388 15.5638 15.87 15.0518 16.25C14.5398 16.63 13.8035 16.9456 12.9167 17.1651C12.0299 17.3845 11.024 17.5 10 17.5C8.97604 17.5 7.97012 17.3845 7.08334 17.1651C6.19656 16.9456 5.46017 16.63 4.94819 16.25C4.43621 15.87 4.16667 15.4388 4.16667 15C4.16667 14.5612 4.43621 14.13 4.94819 13.75" stroke="#777777" stroke-linecap="round"/>
</svg>
