<svg width="25" height="21" viewBox="0 0 25 21" fill="none" xmlns="http://www.w3.org/2000/svg">
<path d="M24.4324 4.81389L21.7982 0.608839C21.5628 0.231359 21.1447 0 20.6982 0H4.30018C3.85369 0 3.43563 0.231359 3.20021 0.608839L0.565965 4.81389C-0.793775 6.98541 0.411726 10.0053 2.95261 10.3503C3.13527 10.3746 3.32198 10.3868 3.50869 10.3868C4.71013 10.3868 5.77357 9.85913 6.50417 9.04329C7.23478 9.85913 8.30228 10.3868 9.49966 10.3868C10.7011 10.3868 11.7645 9.85913 12.4951 9.04329C13.2258 9.85913 14.2933 10.3868 15.4906 10.3868C16.6921 10.3868 17.7555 9.85913 18.4861 9.04329C19.2208 9.85913 20.2842 10.3868 21.4816 10.3868C21.6724 10.3868 21.855 10.3746 22.0377 10.3503C24.5867 10.0093 25.7962 6.98947 24.4324 4.81389ZM21.4897 11.6897C21.0838 11.6897 20.682 11.6288 20.2923 11.5355V15.5863H4.70607V11.5355C4.31641 11.6248 3.91458 11.6897 3.50869 11.6897C3.26515 11.6897 3.01756 11.6735 2.77808 11.641C2.55078 11.6085 2.32754 11.5558 2.11242 11.4949V19.4828C2.11242 20.2013 2.69284 20.7817 3.41127 20.7817H21.5953C22.3137 20.7817 22.8941 20.2013 22.8941 19.4828V11.4949C22.6749 11.5598 22.4558 11.6126 22.2285 11.641C21.9809 11.6735 21.7373 11.6897 21.4897 11.6897Z" fill="current"/>
</svg>
