<svg width="20" height="19" viewBox="0 0 15 14" fill="none" xmlns="http://www.w3.org/2000/svg">
<path fill-rule="evenodd" clip-rule="evenodd" d="M7.06542 0C10.9613 0 14.1308 3.1402 14.1308 7C14.1308 10.8598 10.9613 14 7.06542 14C3.16955 14 0 10.8598 0 7C0 3.1402 3.16955 0 7.06542 0ZM7.06542 1.05C3.75386 1.05 1.05981 3.7191 1.05981 7C1.05981 10.2809 3.75386 12.95 7.06542 12.95C10.377 12.95 13.071 10.2809 13.071 7C13.071 3.7191 10.377 1.05 7.06542 1.05ZM6.82604 3.56678C7.11926 3.56678 7.35595 3.80198 7.35595 4.09178V7.18718L9.76173 8.60818C10.0125 8.75728 10.0952 9.07928 9.94543 9.32848C9.84581 9.49298 9.66988 9.58468 9.48971 9.58468C9.39715 9.58468 9.30389 9.56088 9.2184 9.51118L6.55473 7.93688C6.39505 7.84168 6.29614 7.67018 6.29614 7.48538V4.09178C6.29614 3.80198 6.53354 3.56678 6.82604 3.56678Z" fill="#555555"/>
</svg>
